<svg xmlns="http://www.w3.org/2000/svg" xmlns:xlink="http://www.w3.org/1999/xlink" viewBox="0 0 1806.74 828.52"><defs><style>.cls-1{fill:none;}.cls-2{clip-path:url(#clip-path);}.cls-3{font-size:23px;font-family:Obviously-Extd, Obviously;letter-spacing:1.21em;}.cls-4{letter-spacing:1.3em;}.cls-5{letter-spacing:1.21em;}.cls-6{letter-spacing:1.3em;}</style><clipPath id="clip-path" transform="translate(-10.89 -12.79)"><rect class="cls-1" width="715.78" height="184.19"/></clipPath></defs><g id="Livello_2" data-name="Livello 2"><g id="Livello_1-2" data-name="Livello 1"><g class="cls-2"><path d="M170.58,12.79H111A3.25,3.25,0,0,0,107.73,16V64.36a3.25,3.25,0,0,1-5.53,2.32l-54-53a3.25,3.25,0,0,0-2.28-.93H15.45A3.25,3.25,0,0,0,12.2,16V71a3.25,3.25,0,0,0,3.25,3.25H85.28a3.8,3.8,0,0,1,0,7.59H15.45a3.25,3.25,0,0,0-3.25,3.25v55a3.25,3.25,0,0,0,3.25,3.25h89a3.24,3.24,0,0,0,3.25-3.25V85.08a3.24,3.24,0,0,0-3.25-3.25H100a3.8,3.8,0,0,1,0-7.59h70.57A3.25,3.25,0,0,0,173.83,71V16a3.25,3.25,0,0,0-3.25-3.25" transform="translate(-10.89 -12.79)"/><path d="M630.12,74.24h70.2A3.25,3.25,0,0,0,703.58,71V16a3.25,3.25,0,0,0-3.26-3.25H545.2A3.25,3.25,0,0,0,541.94,16V71a3.25,3.25,0,0,0,3.26,3.25h70.2a3.8,3.8,0,0,1,0,7.59H545.2a3.25,3.25,0,0,0-3.26,3.25v55a3.25,3.25,0,0,0,3.26,3.25H700.32a3.25,3.25,0,0,0,3.26-3.25V85.08a3.25,3.25,0,0,0-3.26-3.25h-70.2a3.8,3.8,0,0,1,0-7.59" transform="translate(-10.89 -12.79)"/><path d="M523.74,12.79H493.51A3.24,3.24,0,0,0,491,14L448.74,66.39a3.25,3.25,0,0,1-5.13,0L401.41,14a3.25,3.25,0,0,0-2.56-1.25H368.62A3.25,3.25,0,0,0,365.36,16V140a3.25,3.25,0,0,0,3.26,3.25h70.52a3.25,3.25,0,0,0,3.25-3.25V78h0A3.8,3.8,0,0,1,450,78h0v62a3.24,3.24,0,0,0,3.25,3.25h70.5A3.25,3.25,0,0,0,527,140V16a3.25,3.25,0,0,0-3.26-3.25" transform="translate(-10.89 -12.79)"/><path d="M269.6,23.33A54.71,54.71,0,1,1,214.89,78a54.81,54.81,0,0,1,54.71-54.7m77.56-10.54H192A3.25,3.25,0,0,0,188.78,16V140a3.25,3.25,0,0,0,3.25,3.25H347.16a3.24,3.24,0,0,0,3.25-3.25V16a3.24,3.24,0,0,0-3.25-3.25" transform="translate(-10.89 -12.79)"/><path d="M41.12,183.11H36.9c-.18-.3-.52-.81-1-1.51l-1.71-2.41-4.39,0h-10l-2.15,0c-.62.83-1.18,1.59-1.68,2.29s-.87,1.24-1.13,1.63H10.89c.86-1.07,1.92-2.44,3.19-4.09s2.53-3.32,3.79-5l3.49-4.69c1.07-1.45,1.84-2.53,2.31-3.23H28.2q.93,1.37,2.57,3.56t3.48,4.6q1.83,2.4,3.68,4.77T41.12,183.11ZM25.8,177H29l3.53,0-2.17-3-2-2.69-1.51-2.07-1-1.4c-.29.41-.63.89-1,1.45s-.89,1.25-1.45,2.06-1.23,1.72-2,2.71S20,176,19.29,177H25.8Z" transform="translate(-10.89 -12.79)"/><path d="M104.24,166.11h3.81c-.6,1-1.33,2.32-2.16,3.86s-1.7,3.11-2.56,4.72-1.72,3.17-2.53,4.68l-2,3.74h-4l-1-2c-.4-.74-.81-1.53-1.24-2.37l-1.35-2.63c-.47-.91-.92-1.81-1.36-2.7s-.79-1.7-1.11-2.46-.59-1.43-.84-2H87.7c-.22.61-.5,1.29-.83,2.06s-.72,1.61-1.19,2.52-.89,1.71-1.35,2.59-.93,1.75-1.36,2.58l-1.26,2.36-1.08,2H77.26c-.58-1-1.27-2.29-2.07-3.8s-1.63-3-2.49-4.63S71,171.54,70.13,170s-1.61-2.82-2.28-3.9H71.7c.16.34.44.91.87,1.74s.89,1.74,1.42,2.75,1.08,2.06,1.63,3.13l1.5,2.85c.51.94.92,1.71,1.22,2.31s.58,1.15.82,1.64h.09q.36-.75.9-1.77c.35-.68.76-1.5,1.23-2.45s1-1.92,1.45-2.9.94-1.92,1.36-2.81.81-1.72,1.17-2.5.63-1.44.85-2l1,0h1.94l.75,0c.23.53.53,1.21.91,2s.79,1.72,1.23,2.67l1.39,2.89c.49,1,.95,1.88,1.39,2.69.51,1,.94,1.78,1.28,2.45s.62,1.24.85,1.72h.13c.23-.48.51-1.06.85-1.72s.75-1.47,1.24-2.4l1.41-2.82,1.52-3c.49-1,.93-1.87,1.33-2.68S104.09,166.51,104.24,166.11Z" transform="translate(-10.89 -12.79)"/><path d="M140.25,166.11H163.9c0,.16,0,.33,0,.53v1.21c0,.22,0,.39,0,.51l-5.27,0-5.41,0-5.14,0h-4.46v5.3H154l5.1,0,4.44,0c0,.26,0,.61,0,1s0,.81,0,1.09l-4.43,0-5.12,0-5.33,0h-5.06c0,.91,0,1.84,0,2.79s0,1.78,0,2.49h4.5l5.19,0,5.43,0c1.82,0,3.55,0,5.16,0,0,.15,0,.33,0,.54v1.28c0,.22,0,.41,0,.56H140.25c0-1.12.07-2.36.08-3.73s0-3,0-4.77,0-3.39,0-4.77S140.29,167.22,140.25,166.11Z" transform="translate(-10.89 -12.79)"/><path d="M217.06,174.45v.09a16.3,16.3,0,0,1,1.85.15,7.63,7.63,0,0,1,1.46.35,3.7,3.7,0,0,1,1.88,1.31,3.85,3.85,0,0,1,.59,2.23,3.65,3.65,0,0,1-1.93,3.5,11.59,11.59,0,0,1-5.41,1H198.44c.06-1.18.09-2.44.11-3.78s0-2.92,0-4.72,0-3.37,0-4.73-.05-2.62-.11-3.77H215.2c2.6,0,4.47.36,5.62,1.06a3.52,3.52,0,0,1,1.72,3.23,4,4,0,0,1-.47,2,3.41,3.41,0,0,1-1.52,1.3,5.19,5.19,0,0,1-1.5.47C218.47,174.31,217.8,174.39,217.06,174.45Zm2.24-3.62a2.08,2.08,0,0,0-1.16-1.94,8.34,8.34,0,0,0-3.82-.65l-5.95,0-6.63,0c0,.68,0,1.47,0,2.37v2.77q3.45.09,6.52.06l5.81,0a8.65,8.65,0,0,0,4-.69A2.15,2.15,0,0,0,219.3,170.83Zm-4.94,10a8.62,8.62,0,0,0,3.88-.67,2.28,2.28,0,0,0,1.25-2.16,2,2,0,0,0-1.21-1.93,10,10,0,0,0-4.23-.63h-5.84q-3.18,0-6.49,0c0,1,0,1.9,0,2.81s0,1.73,0,2.47l6.95.06Z" transform="translate(-10.89 -12.79)"/><path d="M274.68,174.29v.07l1.33.16a9.61,9.61,0,0,1,1.21.25,4.47,4.47,0,0,1,2.37,1.31,3.58,3.58,0,0,1,.71,2.29c0,1.71-1,3-3.1,3.86s-5.12,1.29-9.13,1.29c-4.52,0-7.78-.51-9.77-1.51s-3-2.43-3-4.27v-.61l.66,0h1.61l.67,0v.38c0,1.14.75,2,2.24,2.63s4,.93,7.55.93a36.88,36.88,0,0,0,4.49-.23,13.14,13.14,0,0,0,2.84-.62,3.19,3.19,0,0,0,1.48-1,2,2,0,0,0,.42-1.23c0-.86-.54-1.51-1.61-2a15.47,15.47,0,0,0-5.44-.68h-3.8c-1.3,0-2.67,0-4.11.07a5.62,5.62,0,0,0,0-.6v-1.18a3.24,3.24,0,0,0,0-.46l3.3,0c1.33,0,2.87,0,4.61,0a27.22,27.22,0,0,0,3.28-.17,9.64,9.64,0,0,0,2.15-.48,2.49,2.49,0,0,0,1.15-.76,1.64,1.64,0,0,0,.35-1,1.81,1.81,0,0,0-.41-1.19,2.84,2.84,0,0,0-1.42-.83,13.47,13.47,0,0,0-2.78-.5c-1.17-.12-2.65-.17-4.45-.17-3.42,0-5.84.28-7.26.86s-2.14,1.43-2.14,2.56a2.26,2.26,0,0,0,0,.25c0,.09,0,.17,0,.25l-.66,0h-1.63l-.66,0c0-.11,0-.22,0-.33v-.33a4.64,4.64,0,0,1,.66-2.48,4.88,4.88,0,0,1,2.09-1.8,12.91,12.91,0,0,1,3.79-1.1,36.69,36.69,0,0,1,5.7-.38q6.5,0,9.3,1.22c1.86.8,2.8,2,2.8,3.54a3.22,3.22,0,0,1-.72,2.12,4.07,4.07,0,0,1-2,1.28,9.23,9.23,0,0,1-1.22.27A14.21,14.21,0,0,1,274.68,174.29Z" transform="translate(-10.89 -12.79)"/><path d="M337.17,173.3v-.39c0-1.51-.84-2.66-2.54-3.45s-4.31-1.19-7.81-1.19a24.34,24.34,0,0,0-4.58.43,11.85,11.85,0,0,0-3.44,1.18,5.8,5.8,0,0,0-2.16,1.92,4.77,4.77,0,0,0-.76,2.7,4.85,4.85,0,0,0,.77,2.71,6.14,6.14,0,0,0,2.21,2,11.89,11.89,0,0,0,3.52,1.22,23.83,23.83,0,0,0,4.69.42,31.23,31.23,0,0,0,4.69-.29,11.6,11.6,0,0,0,3.13-.87,4.1,4.1,0,0,0,1.74-1.43,3.54,3.54,0,0,0,.54-1.94v-.5c.25,0,.51,0,.79,0h1.64c.27,0,.53,0,.77,0,0,.11,0,.22,0,.33s0,.22,0,.33a6.33,6.33,0,0,1-.63,2.81,5.48,5.48,0,0,1-2.15,2.22,12.9,12.9,0,0,1-4.09,1.46,32.31,32.31,0,0,1-6.45.53,30,30,0,0,1-6.15-.56,14.66,14.66,0,0,1-4.56-1.68,7.4,7.4,0,0,1-3.77-6.68,7.39,7.39,0,0,1,1-3.95,8.25,8.25,0,0,1,2.9-2.75,14.86,14.86,0,0,1,4.5-1.61,29.71,29.71,0,0,1,5.79-.53q6.69,0,10.12,1.69a5.45,5.45,0,0,1,3.43,5.15c0,.12,0,.24,0,.37s0,.24,0,.36c-.24,0-.5,0-.77,0H338C337.69,173.28,337.43,173.28,337.17,173.3Z" transform="translate(-10.89 -12.79)"/><path d="M401.84,174.61a7.47,7.47,0,0,1-3.7,6.67q-3.7,2.37-10.71,2.37t-10.72-2.37a7.48,7.48,0,0,1-3.71-6.67,7.6,7.6,0,0,1,1-3.88,8.2,8.2,0,0,1,2.81-2.84,14.42,14.42,0,0,1,4.53-1.73,32,32,0,0,1,12.24,0,14.23,14.23,0,0,1,4.53,1.73,8,8,0,0,1,2.8,2.84A7.7,7.7,0,0,1,401.84,174.61Zm-14.41,6.44q5.42,0,8.28-1.59a5.5,5.5,0,0,0,0-9.67c-1.92-1.08-4.68-1.61-8.26-1.61s-6.33.53-8.26,1.61a5.49,5.49,0,0,0,0,9.67Q382,181.05,387.43,181.05Z" transform="translate(-10.89 -12.79)"/><path d="M463.13,166.11h4c0,1.11-.06,2.33-.1,3.69s0,2.95,0,4.79,0,3.36,0,4.69.06,2.61.11,3.83h-3.43c0-.62,0-1.3.06-2.05s0-1.53.05-2.35,0-1.66,0-2.53,0-1.76,0-2.63,0-1.48.06-2.22.07-1.45.1-2.13l-.18,0q-.57.84-1.29,1.83c-.49.65-1,1.31-1.57,2l-8.83,10.15h-1.73l-8.92-10.63c-.61-.72-1.15-1.4-1.61-2s-.89-1.22-1.27-1.77l-.23.06c0,.8.07,1.67.1,2.59s.07,1.78.08,2.58,0,1.75,0,2.54,0,1.53,0,2.25,0,1.44.05,2.15.06,1.47.11,2.26h-3.31c0-1.21.07-2.48.09-3.82s0-2.9,0-4.7,0-3.44,0-4.79-.05-2.58-.08-3.69h4.69q1.5,1.75,3.67,4.39l4.78,5.81c.44.56.9,1.15,1.39,1.76s1,1.22,1.44,1.84h.25c.47-.62.95-1.23,1.45-1.85l1.41-1.73c.9-1,1.78-2.06,2.61-3.07l2.35-2.82,2-2.42C462.13,167.28,462.67,166.64,463.13,166.11Z" transform="translate(-10.89 -12.79)"/><path d="M502.27,166.11h15a24.44,24.44,0,0,1,3.87.28,7.69,7.69,0,0,1,2.79,1,4.45,4.45,0,0,1,1.69,1.83,6.61,6.61,0,0,1,.58,2.93q0,3.42-2.22,4.82c-1.48.94-3.73,1.41-6.73,1.41h-8l-3.72-.06c0,1,0,1.84.06,2.65s.05,1.55.1,2.2h-3.42q0-1.83.06-3.81c0-1.31,0-2.88,0-4.69s0-3.37,0-4.71S502.3,167.29,502.27,166.11ZM516.61,176c2.4,0,4.07-.27,5-.83a3.13,3.13,0,0,0,1.42-2.95,3.06,3.06,0,0,0-1.44-3,11.17,11.17,0,0,0-4.93-.78h-5.53l-3.16,0-2.46.05c0,1.28,0,2.55,0,3.8s0,2.45,0,3.58h1.74l2.64,0,3.22,0Z" transform="translate(-10.89 -12.79)"/><path d="M584.81,183.11H580.6c-.18-.3-.52-.81-1-1.51l-1.71-2.41-4.4,0h-10l-2.15,0c-.62.83-1.18,1.59-1.68,2.29s-.88,1.24-1.13,1.63h-3.92c.86-1.07,1.92-2.44,3.19-4.09s2.53-3.32,3.79-5,2.41-3.23,3.48-4.69,1.85-2.53,2.32-3.23h4.53c.62.91,1.47,2.1,2.57,3.56s2.25,3,3.48,4.6,2.45,3.19,3.68,4.77ZM569.5,177h3.24l3.53,0-2.17-3-2-2.69-1.5-2.07-1-1.4-1,1.45c-.41.56-.89,1.25-1.45,2.06s-1.23,1.72-2,2.71-1.45,2-2.18,2.94h6.51Z" transform="translate(-10.89 -12.79)"/><path d="M638.81,166.11h3c0,1.09,0,2.33-.05,3.72s0,3,0,4.78v4.75c0,1.34,0,2.59,0,3.75h-3.2c-.45-.42-1.26-1.08-2.44-2s-2.53-1.87-4-3-3.12-2.23-4.82-3.43l-4.77-3.37c-.52-.36-1-.72-1.51-1.09s-.94-.73-1.35-1.06l0,0c0,.61.05,1.24.06,1.91s0,1.33,0,2q0,3.72,0,6.3c0,1.72,0,2.94.08,3.65h-3.1c0-1.13,0-2.38,0-3.75s0-3,0-4.75,0-3.38,0-4.74,0-2.62,0-3.76h3.76a30.52,30.52,0,0,0,2.39,1.91q1.83,1.35,4.18,3t4.9,3.47l4.53,3.2q.68.48,1.35.93a9.72,9.72,0,0,1,1.19,1l0,0c0-.59,0-1.19-.07-1.78s0-1.18,0-1.74c0-1.11,0-2.19,0-3.22s0-2,0-2.86,0-1.64,0-2.31S638.84,166.49,638.81,166.11Z" transform="translate(-10.89 -12.79)"/><path d="M698.47,166.11h4.42c-.89.79-1.93,1.72-3.12,2.8s-2.37,2.19-3.57,3.31-2.34,2.22-3.44,3.29-2,2-2.76,2.73c0,.53,0,1,0,1.57s0,1,0,1.43,0,.81,0,1.14,0,.58,0,.73h-3.42c0-.15,0-.39,0-.73s0-.71,0-1.15,0-.92,0-1.45,0-1.06,0-1.59c-.71-.75-1.61-1.67-2.71-2.75s-2.24-2.18-3.44-3.3-2.39-2.21-3.58-3.28-2.22-2-3.12-2.75h4.74c.23.26.6.65,1.12,1.16s1.1,1.08,1.75,1.7l2,1.91,1.76,1.76c.74.76,1.38,1.39,1.91,1.92s1,1,1.33,1.34h.19c.33-.37.74-.82,1.24-1.32l1.84-1.87c.51-.51,1.11-1.1,1.8-1.76s1.36-1.3,2-1.92l1.8-1.74C697.88,166.76,698.26,166.37,698.47,166.11Z" transform="translate(-10.89 -12.79)"/><text class="cls-3" transform="translate(1075.12 822.91)">A<tspan class="cls-4" x="57.68" y="0">WEB3COM</tspan><tspan class="cls-5" x="495.53" y="0">P</tspan><tspan class="cls-6" x="551.88" y="0">ANY</tspan></text></g></g></g></svg>