<svg xmlns="http://www.w3.org/2000/svg" xmlns:xlink="http://www.w3.org/1999/xlink" viewBox="0 0 1817.74 841.3"><defs><style>.cls-1{fill:none;}.cls-2{clip-path:url(#clip-path);}.cls-3,.cls-8{fill:#fff;}.cls-3{fill-rule:evenodd;}.cls-4{font-size:23px;font-family:Obviously-Extd, Obviously;letter-spacing:1.21em;}.cls-5{letter-spacing:1.3em;}.cls-6{letter-spacing:1.21em;}.cls-7{letter-spacing:1.3em;}</style><clipPath id="clip-path" transform="translate(0.11 0)"><rect class="cls-1" width="715.78" height="184.19"/></clipPath></defs><g id="Livello_2" data-name="Livello 2"><g id="Livello_1-2" data-name="Livello 1"><g class="cls-2"><path class="cls-3" d="M9,0H706.81a9,9,0,0,1,9,9V147.1a9,9,0,0,1-9,9H9a9,9,0,0,1-9-9V9A9,9,0,0,1,9,0" transform="translate(0.11 0)"/><path d="M170.58,12.79H111A3.25,3.25,0,0,0,107.73,16V64.36a3.25,3.25,0,0,1-5.53,2.32l-54-53a3.25,3.25,0,0,0-2.28-.93H15.45A3.25,3.25,0,0,0,12.2,16V71a3.25,3.25,0,0,0,3.25,3.25H85.28a3.8,3.8,0,0,1,0,7.59H15.45a3.25,3.25,0,0,0-3.25,3.25v55a3.25,3.25,0,0,0,3.25,3.25h89a3.24,3.24,0,0,0,3.25-3.25V85.08a3.24,3.24,0,0,0-3.25-3.25H100a3.8,3.8,0,0,1,0-7.59h70.57A3.25,3.25,0,0,0,173.83,71V16a3.25,3.25,0,0,0-3.25-3.25" transform="translate(0.11 0)"/><path d="M630.12,74.24h70.2A3.25,3.25,0,0,0,703.58,71V16a3.25,3.25,0,0,0-3.26-3.25H545.2A3.25,3.25,0,0,0,541.94,16V71a3.25,3.25,0,0,0,3.26,3.25h70.2a3.8,3.8,0,0,1,0,7.59H545.2a3.25,3.25,0,0,0-3.26,3.25v55a3.25,3.25,0,0,0,3.26,3.25H700.32a3.25,3.25,0,0,0,3.26-3.25V85.08a3.25,3.25,0,0,0-3.26-3.25h-70.2a3.8,3.8,0,0,1,0-7.59" transform="translate(0.11 0)"/><path d="M523.74,12.79H493.51A3.24,3.24,0,0,0,491,14L448.74,66.39a3.25,3.25,0,0,1-5.13,0L401.41,14a3.25,3.25,0,0,0-2.56-1.25H368.62A3.25,3.25,0,0,0,365.36,16V140a3.25,3.25,0,0,0,3.26,3.25h70.52a3.25,3.25,0,0,0,3.25-3.25V78h0A3.8,3.8,0,0,1,450,78h0v62a3.24,3.24,0,0,0,3.25,3.25h70.5A3.25,3.25,0,0,0,527,140V16a3.25,3.25,0,0,0-3.26-3.25" transform="translate(0.11 0)"/><path d="M269.6,23.33A54.71,54.71,0,1,1,214.89,78a54.81,54.81,0,0,1,54.71-54.7m77.56-10.54H192A3.25,3.25,0,0,0,188.78,16V140a3.25,3.25,0,0,0,3.25,3.25H347.16a3.24,3.24,0,0,0,3.25-3.25V16a3.24,3.24,0,0,0-3.25-3.25" transform="translate(0.11 0)"/><text class="cls-4" transform="translate(1086.12 835.69)">A<tspan class="cls-5" x="57.68" y="0">WEB3COM</tspan><tspan class="cls-6" x="495.53" y="0">P</tspan><tspan class="cls-7" x="551.88" y="0">ANY</tspan></text><path class="cls-8" d="M31.16,183.4H26.8c-.18-.31-.53-.83-1-1.56L24,179.35l-4.55,0H9.08l-2.23,0c-.64.86-1.22,1.65-1.73,2.37S4.21,183,3.94,183.4h-4q1.34-1.67,3.3-4.23c1.32-1.71,2.62-3.43,3.92-5.16s2.5-3.34,3.61-4.85,1.91-2.62,2.39-3.34H17.8q1,1.41,2.66,3.68c1.13,1.52,2.33,3.1,3.6,4.76s2.54,3.3,3.81,4.94Zm-15.85-6.35h3.36l3.65,0-2.25-3.1-2-2.79L16.48,169l-1.05-1.44c-.3.42-.65.92-1.08,1.5s-.92,1.28-1.5,2.13-1.26,1.78-2,2.8-1.5,2-2.25,3h6.72Z" transform="translate(0.11 0)"/><path class="cls-8" d="M96.48,165.82h3.94c-.63,1.06-1.37,2.39-2.24,4s-1.75,3.22-2.65,4.88l-2.61,4.85c-.85,1.56-1.55,2.85-2.11,3.86H86.66c-.32-.57-.67-1.25-1.08-2s-.83-1.58-1.28-2.45l-1.39-2.72c-.49-.95-1-1.88-1.41-2.8s-.82-1.76-1.15-2.55l-.87-2.07h-.11c-.24.62-.52,1.33-.86,2.13s-.75,1.67-1.23,2.6-.92,1.77-1.41,2.69l-1.4,2.66c-.46.86-.89,1.68-1.31,2.45l-1.11,2.07H68.56q-.9-1.59-2.14-3.92t-2.57-4.8c-.9-1.64-1.78-3.25-2.67-4.83s-1.66-2.92-2.35-4h4c.16.34.46.94.89,1.79s.93,1.81,1.48,2.85l1.69,3.24c.58,1.11,1.09,2.09,1.55,3s1,1.77,1.26,2.39l.85,1.69h.09q.38-.76.93-1.83c.36-.7.79-1.55,1.27-2.53s1-2,1.51-3,1-2,1.4-2.91.84-1.78,1.21-2.59.66-1.49.88-2.05h3.82c.23.55.55,1.25.94,2.11s.81,1.78,1.28,2.75.94,2,1.44,3,1,2,1.43,2.79c.53,1,1,1.85,1.32,2.54s.65,1.28.88,1.78h.14c.24-.5.53-1.1.88-1.78l1.28-2.49,1.46-2.92c.54-1.07,1.07-2.11,1.57-3.12s1-1.93,1.38-2.77S96.32,166.23,96.48,165.82Z" transform="translate(0.11 0)"/><path class="cls-8" d="M133.73,165.82h24.48a4.52,4.52,0,0,0,0,.54v1.25a3.8,3.8,0,0,0,0,.53c-1.73,0-3.55,0-5.45,0l-5.6,0-5.33,0h-4.6v5.48H148l5.27,0,4.6,0c0,.27,0,.63,0,1.08s0,.83,0,1.13l-4.59,0-5.29,0-5.52,0h-5.23c0,.94,0,1.9,0,2.89s0,1.84,0,2.58l4.65,0,5.37,0,5.61,0,5.35,0a4.79,4.79,0,0,0,0,.56v1.33a4.71,4.71,0,0,0,0,.57H133.73c.05-1.15.08-2.44.09-3.85s0-3.06,0-4.94,0-3.5,0-4.93S133.78,167,133.73,165.82Z" transform="translate(0.11 0)"/><path class="cls-8" d="M213.21,174.45v.09a17.45,17.45,0,0,1,1.91.15,8,8,0,0,1,1.51.37,3.76,3.76,0,0,1,2,1.35,3.91,3.91,0,0,1,.61,2.3,3.77,3.77,0,0,1-2,3.63,12.09,12.09,0,0,1-5.61,1.06H193.94c.06-1.22.1-2.52.12-3.91s0-3,0-4.88,0-3.49,0-4.9-.06-2.7-.12-3.89h17.35q4,0,5.81,1.09a3.65,3.65,0,0,1,1.79,3.34,4.08,4.08,0,0,1-.5,2.12,3.46,3.46,0,0,1-1.57,1.35,5.15,5.15,0,0,1-1.55.48C214.67,174.3,214,174.39,213.21,174.45Zm2.32-3.75a2.17,2.17,0,0,0-1.2-2,8.75,8.75,0,0,0-4-.67l-6.15,0-6.86,0c0,.7,0,1.52,0,2.45v2.87c2.38.07,4.62.08,6.74.06l6,0a8.92,8.92,0,0,0,4.2-.72A2.21,2.21,0,0,0,215.53,170.7ZM210.42,181a8.88,8.88,0,0,0,4-.69,2.36,2.36,0,0,0,1.29-2.24,2.12,2.12,0,0,0-1.24-2,10.23,10.23,0,0,0-4.39-.66h-6q-3.3,0-6.72,0c0,1,0,2,0,2.91s0,1.79,0,2.55l7.19.06Z" transform="translate(0.11 0)"/><path class="cls-8" d="M272.83,174.28v.07c.49.05.94.11,1.37.17a10.42,10.42,0,0,1,1.26.26,4.49,4.49,0,0,1,2.45,1.36,3.66,3.66,0,0,1,.74,2.36c0,1.77-1.08,3.1-3.22,4s-5.29,1.34-9.44,1.34q-7,0-10.11-1.56c-2.06-1-3.09-2.52-3.09-4.42v-.64l.68,0h1.66l.7,0v.4c0,1.18.77,2.08,2.31,2.72s4.15,1,7.82,1a37.32,37.32,0,0,0,4.64-.23,13.26,13.26,0,0,0,2.95-.65,3.29,3.29,0,0,0,1.52-1,2.07,2.07,0,0,0,.43-1.27c0-.89-.55-1.57-1.66-2a15.9,15.9,0,0,0-5.63-.7h-3.92c-1.36,0-2.78,0-4.26.07a6.12,6.12,0,0,0,0-.62v-1.22a3.54,3.54,0,0,0,0-.48l3.41.06q2.07,0,4.77,0a29.18,29.18,0,0,0,3.4-.17,10.25,10.25,0,0,0,2.22-.5,2.68,2.68,0,0,0,1.19-.78,1.65,1.65,0,0,0,.37-1.06,1.86,1.86,0,0,0-.43-1.23,3,3,0,0,0-1.47-.86,14.19,14.19,0,0,0-2.87-.52c-1.22-.12-2.75-.18-4.61-.18q-5.29,0-7.52.89c-1.47.6-2.21,1.48-2.21,2.65a2.35,2.35,0,0,0,0,.26,2.44,2.44,0,0,1,0,.26l-.68,0h-1.69l-.68,0c0-.11,0-.22,0-.34v-.34a4.86,4.86,0,0,1,.68-2.57,5.18,5.18,0,0,1,2.17-1.86,13.61,13.61,0,0,1,3.92-1.14,37.77,37.77,0,0,1,5.89-.39q6.74,0,9.63,1.26t2.89,3.67a3.35,3.35,0,0,1-.74,2.19,4.22,4.22,0,0,1-2.07,1.32,11.8,11.8,0,0,1-1.26.29C273.88,174.17,273.38,174.24,272.83,174.28Z" transform="translate(0.11 0)"/><path class="cls-8" d="M337.49,173.25v-.4q0-2.34-2.64-3.57c-1.75-.82-4.45-1.23-8.07-1.23a25.15,25.15,0,0,0-4.74.44,12.47,12.47,0,0,0-3.56,1.22,6.15,6.15,0,0,0-2.24,2,4.93,4.93,0,0,0-.79,2.79,5.07,5.07,0,0,0,.8,2.81,6.31,6.31,0,0,0,2.29,2.06,12.6,12.6,0,0,0,3.64,1.27,24.75,24.75,0,0,0,4.86.43,31.82,31.82,0,0,0,4.85-.31,11.42,11.42,0,0,0,3.23-.9,4.28,4.28,0,0,0,1.81-1.48,3.65,3.65,0,0,0,.56-2v-.52q.38,0,.81,0H340c.28,0,.55,0,.8,0,0,.11,0,.23,0,.34s0,.24,0,.34a6.48,6.48,0,0,1-.66,2.91,5.66,5.66,0,0,1-2.22,2.3,13.51,13.51,0,0,1-4.23,1.51,33.56,33.56,0,0,1-6.67.55,31.36,31.36,0,0,1-6.37-.58,14.94,14.94,0,0,1-4.71-1.74,7.91,7.91,0,0,1-2.91-2.89,8,8,0,0,1-1-4,7.53,7.53,0,0,1,1.08-4.08,8.4,8.4,0,0,1,3-2.85,15.18,15.18,0,0,1,4.66-1.67,30.84,30.84,0,0,1,6-.55q6.92,0,10.47,1.75a5.66,5.66,0,0,1,3.55,5.33c0,.13,0,.25,0,.38s0,.25,0,.37l-.79,0H338.3Z" transform="translate(0.11 0)"/><path class="cls-8" d="M404.4,174.61a7.78,7.78,0,0,1-3.83,6.91Q396.73,184,389.49,184t-11.09-2.45a7.76,7.76,0,0,1-3.84-6.91,7.85,7.85,0,0,1,1-4,8.46,8.46,0,0,1,2.9-2.93,14.67,14.67,0,0,1,4.69-1.79,33.15,33.15,0,0,1,12.66,0,14.67,14.67,0,0,1,4.69,1.79,8.37,8.37,0,0,1,2.9,2.93A8,8,0,0,1,404.4,174.61Zm-14.91,6.66c3.74,0,6.59-.55,8.57-1.64a5.35,5.35,0,0,0,3-5,5.4,5.4,0,0,0-3-5c-2-1.11-4.84-1.67-8.55-1.67s-6.55.56-8.54,1.67a5.69,5.69,0,0,0,0,10Q383.92,181.27,389.49,181.27Z" transform="translate(0.11 0)"/><path class="cls-8" d="M467.82,165.82H472q0,1.71-.09,3.81c0,1.4-.05,3.05-.05,5s0,3.48,0,4.85.06,2.7.11,4h-3.54c0-.64,0-1.34.06-2.12s0-1.58.05-2.42,0-1.72,0-2.63,0-1.81,0-2.72,0-1.53.06-2.3.07-1.5.1-2.2l-.18,0c-.39.57-.84,1.2-1.34,1.88s-1,1.36-1.62,2l-9.14,10.5h-1.78l-9.24-11c-.62-.75-1.18-1.45-1.66-2.1s-.93-1.26-1.32-1.84l-.23.07c0,.83.06,1.72.1,2.67s.07,1.85.09,2.68,0,1.81,0,2.62,0,1.59,0,2.33l.06,2.23c0,.74.06,1.52.11,2.33h-3.43c.05-1.25.08-2.56.1-4s0-3,0-4.86,0-3.56,0-5,0-2.67-.09-3.81h4.86c1,1.2,2.29,2.72,3.8,4.54l4.94,6,1.44,1.82c.51.63,1,1.27,1.49,1.91H456c.48-.64,1-1.28,1.5-1.92l1.45-1.79c.94-1.07,1.84-2.13,2.71-3.17l2.43-2.92,2.07-2.51C466.78,167,467.34,166.37,467.82,165.82Z" transform="translate(0.11 0)"/><path class="cls-8" d="M508.31,165.82h15.54a25,25,0,0,1,4,.28,8,8,0,0,1,2.89,1,4.62,4.62,0,0,1,1.74,1.9,6.68,6.68,0,0,1,.6,3q0,3.54-2.3,5t-7,1.46h-8.3l-3.84-.06c0,1,0,1.9.05,2.74s.06,1.6.11,2.27h-3.54c0-1.26.05-2.58.07-3.93s0-3,0-4.86,0-3.48,0-4.87S508.34,167,508.31,165.82ZM523.15,176c2.48,0,4.22-.29,5.19-.86a3.24,3.24,0,0,0,1.47-3.06,3.17,3.17,0,0,0-1.49-3.06,11.51,11.51,0,0,0-5.1-.8H517.5c-1.13,0-2.22,0-3.27,0s-1.9,0-2.54.05c0,1.32,0,2.64,0,3.93s0,2.54,0,3.71h1.8l2.73,0,3.33,0Z" transform="translate(0.11 0)"/><path class="cls-8" d="M593.72,183.4h-4.36q-.29-.47-1.05-1.56t-1.77-2.49l-4.54,0H571.63l-2.22,0c-.65.86-1.22,1.65-1.74,2.37s-.91,1.28-1.17,1.68h-4.06c.89-1.11,2-2.52,3.31-4.23s2.62-3.43,3.91-5.16,2.5-3.34,3.61-4.85,1.91-2.62,2.4-3.34h4.68c.65.94,1.53,2.17,2.67,3.68s2.33,3.1,3.59,4.76,2.54,3.3,3.81,4.94Zm-15.85-6.35h3.35l3.66,0-2.25-3.1-2-2.79L579,169l-1-1.44-1.08,1.5q-.63.85-1.5,2.13c-.6.84-1.27,1.78-2,2.8s-1.5,2-2.25,3h6.73Z" transform="translate(0.11 0)"/><path class="cls-8" d="M649.59,165.82h3.14c0,1.13,0,2.41-.05,3.85s0,3.08,0,4.94v4.91c0,1.39,0,2.68,0,3.88h-3.3c-.47-.43-1.32-1.11-2.54-2s-2.61-1.94-4.18-3.06l-5-3.56-4.94-3.48c-.53-.37-1.05-.75-1.56-1.13s-1-.75-1.39-1.09l0,0c0,.62,0,1.28.06,2s0,1.37,0,2.06q0,3.85,0,6.52c0,1.78,0,3,.08,3.77h-3.21c0-1.17,0-2.46,0-3.88s0-3.05,0-4.91,0-3.5,0-4.91,0-2.71,0-3.88h3.89a30.66,30.66,0,0,0,2.48,2c1.25.94,2.7,2,4.32,3.15s3.32,2.37,5.07,3.6l4.69,3.31c.46.33.93.65,1.39,1a9.62,9.62,0,0,1,1.23,1l0,0c0-.61-.05-1.22-.07-1.84s0-1.22,0-1.79c0-1.16,0-2.27,0-3.35s0-2,0-2.95,0-1.7,0-2.39S649.62,166.21,649.59,165.82Z" transform="translate(0.11 0)"/><path class="cls-8" d="M711.32,165.82h4.57q-1.38,1.22-3.23,2.9T709,172.14c-1.23,1.16-2.42,2.3-3.56,3.4s-2.1,2-2.86,2.82c0,.55,0,1.09,0,1.63s0,1,0,1.48,0,.84,0,1.18,0,.6,0,.75h-3.54c0-.15,0-.4,0-.75s0-.74,0-1.19,0-1,0-1.5,0-1.1,0-1.64c-.73-.78-1.67-1.73-2.8-2.85s-2.32-2.26-3.56-3.41-2.48-2.29-3.71-3.4-2.3-2.06-3.22-2.84h4.9c.23.27.62.66,1.16,1.2l1.8,1.75,2,2c.69.67,1.3,1.28,1.83,1.81.77.78,1.42,1.44,2,2s1,1,1.38,1.4h.19c.35-.39.78-.85,1.29-1.37l1.9-1.94c.53-.53,1.15-1.13,1.86-1.81l2.1-2c.69-.65,1.31-1.24,1.87-1.79S711.1,166.09,711.32,165.82Z" transform="translate(0.11 0)"/></g></g></g></svg>