<?xml version="1.0" encoding="UTF-8"?>
<svg id="Livello_1" data-name="Livello 1" xmlns="http://www.w3.org/2000/svg" viewBox="0 0 691.38 130.5">
  <path d="M158.38,0h-59.6c-1.8,0-3.25,1.46-3.25,3.25V51.57c0,2.88-3.47,4.34-5.53,2.32L36.02,.93C35.41,.33,34.59,0,33.74,0H3.25C1.46,0,0,1.46,0,3.25V58.21c0,1.79,1.46,3.25,3.25,3.25H73.09c2.09,0,3.79,1.7,3.79,3.79s-1.7,3.79-3.79,3.79H3.25c-1.79,0-3.25,1.46-3.25,3.25v54.95c0,1.79,1.46,3.25,3.25,3.25H92.28c1.8,0,3.25-1.46,3.25-3.25v-54.95c0-1.79-1.46-3.25-3.25-3.25h-4.47c-2.1,0-3.79-1.7-3.79-3.79s1.7-3.79,3.79-3.79h70.57c1.79,0,3.25-1.46,3.25-3.25V3.25C161.63,1.46,160.17,0,158.38,0"/>
  <path d="M617.92,61.46h70.2c1.8,0,3.25-1.46,3.25-3.25V3.25c0-1.8-1.46-3.25-3.25-3.25h-155.13c-1.8,0-3.25,1.45-3.25,3.25V58.21c0,1.79,1.46,3.25,3.25,3.25h70.2c2.1,0,3.79,1.7,3.79,3.79s-1.7,3.79-3.79,3.79h-70.2c-1.8,0-3.25,1.45-3.25,3.25v54.95c0,1.8,1.46,3.25,3.25,3.25h155.13c1.8,0,3.25-1.46,3.25-3.25v-54.95c0-1.8-1.46-3.25-3.25-3.25h-70.2c-2.1,0-3.79-1.7-3.79-3.79s1.7-3.79,3.79-3.79"/>
  <path d="M511.54,0h-30.23c-1,0-1.95,.46-2.57,1.25l-42.21,52.35c-1.3,1.67-3.83,1.67-5.13,0L389.21,1.25c-.62-.79-1.56-1.25-2.57-1.25h-30.23c-1.8,0-3.25,1.46-3.25,3.25V127.25c0,1.8,1.46,3.25,3.25,3.25h70.52c1.79,0,3.25-1.45,3.25-3.25v-62h.02c0-2.1,1.7-3.79,3.79-3.79s3.79,1.7,3.79,3.79h0v62c0,1.8,1.46,3.25,3.25,3.25h70.5c1.8,0,3.25-1.45,3.25-3.25V3.25c0-1.79-1.46-3.25-3.25-3.25"/>
  <path d="M257.4,10.54c30.13,0,54.71,24.57,54.71,54.71s-24.58,54.71-54.71,54.71-54.71-24.57-54.71-54.71,24.57-54.71,54.71-54.71M334.96,0H179.83c-1.79,0-3.25,1.46-3.25,3.25V127.25c0,1.79,1.46,3.25,3.25,3.25h155.13c1.79,0,3.25-1.46,3.25-3.25V3.25C338.21,1.46,336.76,0,334.96,0"/>
</svg>