<?xml version="1.0" encoding="UTF-8"?>
<svg id="Livello_1" data-name="Livello 1" xmlns="http://www.w3.org/2000/svg" viewBox="0 0 716.01 184.31">
  <defs>
    <style>
      .cls-1 {
        fill: #fff;
      }
    </style>
  </defs>
  <path class="cls-1" d="M170.58,8.79h-59.6c-1.8,0-3.25,1.46-3.25,3.25V60.36c0,2.88-3.47,4.34-5.53,2.32L48.22,9.72c-.61-.6-1.43-.93-2.28-.93H15.45c-1.79,0-3.25,1.46-3.25,3.25v54.95c0,1.79,1.46,3.25,3.25,3.25H85.28c2.09,0,3.79,1.7,3.79,3.79s-1.7,3.79-3.79,3.79H15.45c-1.79,0-3.25,1.46-3.25,3.25v54.95c0,1.79,1.46,3.25,3.25,3.25H104.48c1.8,0,3.25-1.46,3.25-3.25v-54.95c0-1.79-1.46-3.25-3.25-3.25h-4.47c-2.1,0-3.79-1.7-3.79-3.79s1.7-3.79,3.79-3.79h70.57c1.79,0,3.25-1.46,3.25-3.25V12.04c0-1.79-1.46-3.25-3.25-3.25"/>
  <path class="cls-1" d="M630.12,70.24h70.2c1.8,0,3.25-1.46,3.25-3.25V12.04c0-1.8-1.46-3.25-3.25-3.25h-155.13c-1.8,0-3.25,1.45-3.25,3.25v54.95c0,1.79,1.46,3.25,3.25,3.25h70.2c2.1,0,3.79,1.7,3.79,3.79s-1.7,3.79-3.79,3.79h-70.2c-1.8,0-3.25,1.45-3.25,3.25v54.95c0,1.8,1.46,3.25,3.25,3.25h155.13c1.8,0,3.25-1.46,3.25-3.25v-54.95c0-1.8-1.46-3.25-3.25-3.25h-70.2c-2.1,0-3.79-1.7-3.79-3.79s1.7-3.79,3.79-3.79"/>
  <path class="cls-1" d="M523.74,8.79h-30.23c-1,0-1.95,.46-2.57,1.25l-42.21,52.35c-1.3,1.67-3.83,1.67-5.13,0l-42.2-52.35c-.62-.79-1.56-1.25-2.57-1.25h-30.23c-1.8,0-3.25,1.46-3.25,3.25v124c0,1.8,1.46,3.25,3.25,3.25h70.52c1.79,0,3.25-1.45,3.25-3.25v-62h.02c0-2.1,1.7-3.79,3.79-3.79s3.79,1.7,3.79,3.79h0v62c0,1.8,1.46,3.25,3.25,3.25h70.5c1.8,0,3.25-1.45,3.25-3.25V12.04c0-1.79-1.46-3.25-3.25-3.25"/>
  <path class="cls-1" d="M269.6,19.33c30.13,0,54.71,24.57,54.71,54.71s-24.58,54.71-54.71,54.71-54.71-24.57-54.71-54.71,24.57-54.71,54.71-54.71m77.56-10.54H192.03c-1.79,0-3.25,1.46-3.25,3.25v124c0,1.79,1.46,3.25,3.25,3.25h155.13c1.79,0,3.25-1.46,3.25-3.25V12.04c0-1.79-1.46-3.25-3.25-3.25"/>
  <path class="cls-1" d="M51.24,162.11h3.81c-.6,1.03-1.33,2.31-2.16,3.85s-1.69,3.12-2.56,4.72c-.87,1.61-1.71,3.17-2.53,4.68s-1.5,2.76-2.04,3.74c-.26,0-.54,0-.86-.01-.32,0-.67-.01-1.07-.01-.47,0-.89,0-1.26,.01-.37,0-.65,.01-.83,.01-.3-.56-.65-1.21-1.04-1.95-.39-.74-.8-1.53-1.23-2.37s-.88-1.71-1.35-2.63-.92-1.82-1.36-2.71c-.42-.88-.79-1.7-1.11-2.46-.32-.76-.6-1.43-.84-2.01h-.11c-.23,.6-.5,1.29-.83,2.06-.32,.77-.72,1.61-1.19,2.51-.44,.85-.89,1.71-1.36,2.59s-.92,1.74-1.36,2.57c-.44,.83-.86,1.62-1.26,2.37-.4,.75-.76,1.42-1.08,2.01-.11,0-.28,0-.52-.01-.24,0-.46-.01-.66-.01-.59,0-1.05,0-1.37,.01-.33,0-.6,.01-.83,.01-.57-1.03-1.26-2.29-2.06-3.8-.8-1.5-1.63-3.05-2.49-4.63-.86-1.59-1.72-3.14-2.57-4.67-.85-1.53-1.61-2.82-2.28-3.9h3.85c.15,.33,.44,.91,.86,1.73,.42,.82,.9,1.74,1.43,2.75,.53,1.01,1.07,2.05,1.63,3.13,.56,1.07,1.06,2.02,1.5,2.85,.51,.94,.92,1.71,1.22,2.31,.3,.6,.57,1.15,.82,1.63h.09c.24-.5,.54-1.09,.9-1.77,.35-.68,.77-1.5,1.23-2.45,.48-.95,.97-1.92,1.45-2.9,.48-.98,.94-1.92,1.36-2.81,.42-.89,.81-1.73,1.17-2.5s.64-1.44,.85-1.98c.24,0,.58,0,1.01,.01s.8,.01,1.1,.01c.26,0,.54,0,.84-.01s.55-.01,.75-.01c.23,.53,.53,1.21,.91,2.04,.38,.83,.79,1.72,1.23,2.66,.45,.94,.91,1.91,1.39,2.89,.48,.98,.94,1.88,1.38,2.7,.51,.97,.94,1.78,1.28,2.45,.34,.67,.62,1.24,.85,1.72h.14c.23-.48,.51-1.06,.85-1.72,.34-.66,.75-1.46,1.23-2.4,.42-.85,.9-1.79,1.42-2.82,.52-1.03,1.03-2.04,1.52-3.01,.49-.97,.93-1.87,1.33-2.69,.39-.82,.66-1.42,.82-1.81Z"/>
  <path class="cls-1" d="M88.47,162.11h23.66c-.02,.15-.02,.33-.02,.52v1.21c0,.22,0,.39,.02,.51-1.68-.01-3.43-.03-5.27-.03-1.84,0-3.64-.01-5.42-.02-1.78,0-3.49-.01-5.14-.02-1.65,0-3.14-.01-4.45-.01v5.3h5.09c1.79,0,3.56,0,5.31-.01s3.45-.01,5.1-.02c1.65,0,3.13-.02,4.44-.03,0,.26,0,.6-.01,1.04,0,.44,0,.8,.01,1.09-1.3,0-2.78,0-4.43-.02-1.65-.01-3.36-.03-5.12-.03-1.76,0-3.54-.01-5.34-.02-1.8,0-3.48-.01-5.05-.01,0,.91,0,1.84-.01,2.79s0,1.78,.01,2.49c1.33,0,2.83,0,4.5-.01,1.67,0,3.4-.01,5.19-.02,1.79,0,3.6-.01,5.43-.02,1.83,0,3.55-.02,5.17-.03-.02,.15-.02,.33-.02,.54v1.28c0,.22,0,.4,.02,.56h-23.66c.05-1.12,.07-2.36,.08-3.73,0-1.37,.01-2.96,.01-4.77s0-3.39-.01-4.77c0-1.38-.03-2.62-.08-3.73Z"/>
  <path class="cls-1" d="M172.06,170.45v.09c.68,.01,1.29,.06,1.85,.15,.55,.08,1.04,.2,1.46,.35,.86,.3,1.49,.74,1.88,1.3,.39,.57,.59,1.31,.59,2.23,0,1.65-.64,2.81-1.93,3.5-1.28,.69-3.09,1.03-5.42,1.03h-17.06c.06-1.18,.1-2.44,.11-3.78,.01-1.34,.02-2.92,.02-4.71s0-3.38-.02-4.74c-.02-1.36-.05-2.61-.11-3.76h16.77c2.6,0,4.47,.35,5.62,1.05,1.15,.7,1.72,1.78,1.72,3.23,0,.83-.16,1.51-.48,2.05-.32,.54-.82,.97-1.52,1.3-.41,.21-.91,.37-1.5,.46-.59,.1-1.25,.18-1.99,.24Zm2.24-3.63c0-.86-.39-1.51-1.17-1.94-.78-.43-2.05-.65-3.82-.65-1.9,0-3.89,0-5.95,.01-2.06,0-4.27,.02-6.63,.03-.02,.68-.02,1.47-.02,2.37v2.78c2.3,.06,4.47,.08,6.51,.06,2.05-.02,3.98-.03,5.81-.03s3.26-.23,4.06-.69c.8-.46,1.2-1.11,1.2-1.94Zm-4.94,9.97c1.75,0,3.04-.22,3.87-.67,.83-.45,1.25-1.17,1.25-2.16,0-.86-.4-1.5-1.2-1.93-.8-.42-2.21-.63-4.24-.63h-5.83c-2.12,0-4.29,.01-6.49,.05,0,.97,0,1.9,.01,2.81s.02,1.73,.03,2.47c2.6,.03,4.92,.05,6.96,.06,2.04,0,3.92,.01,5.64,.01Z"/>
  <path class="cls-1" d="M237.86,170.29v.07c.47,.05,.91,.1,1.33,.16,.42,.06,.82,.14,1.21,.25,1.1,.29,1.89,.72,2.37,1.31,.48,.59,.71,1.35,.71,2.29,0,1.71-1.03,2.99-3.1,3.85-2.07,.86-5.11,1.29-9.13,1.29-4.52,0-7.77-.5-9.77-1.51-1.99-1-2.99-2.43-2.99-4.27v-.61c.2,.01,.42,.03,.66,.03,.24,0,.51,.01,.79,.01s.56,0,.82-.01c.26,0,.48-.02,.68-.03v.38c0,1.13,.74,2.01,2.23,2.63,1.49,.62,4.01,.93,7.56,.93,1.8,0,3.29-.08,4.49-.23,1.19-.15,2.14-.36,2.84-.62,.7-.26,1.19-.58,1.47-.96,.28-.38,.42-.79,.42-1.22,0-.86-.54-1.52-1.61-1.97-1.07-.45-2.89-.68-5.44-.68h-3.8c-1.31,0-2.68,.02-4.11,.07,.01-.18,.02-.38,.02-.6v-1.18c0-.17,0-.33-.02-.46,.86,.01,1.96,.03,3.3,.06s2.87,.03,4.61,.03c1.3,0,2.39-.06,3.29-.17,.89-.11,1.6-.27,2.14-.48,.54-.2,.92-.46,1.16-.76s.35-.64,.35-1.02c0-.45-.14-.85-.41-1.19-.27-.34-.75-.62-1.43-.84-.68-.22-1.61-.39-2.78-.5-1.17-.11-2.66-.17-4.45-.17-3.41,0-5.83,.29-7.26,.86-1.43,.57-2.14,1.43-2.14,2.56,0,.08,0,.16,.01,.25,0,.09,.01,.17,.01,.25-.18-.01-.4-.03-.66-.03-.26,0-.54-.01-.84-.01s-.55,0-.79,.01-.46,.02-.66,.03c-.01-.11-.02-.22-.02-.33v-.33c0-.94,.22-1.76,.66-2.48,.44-.72,1.14-1.32,2.1-1.8s2.22-.85,3.78-1.1c1.56-.25,3.46-.37,5.7-.37,4.34,0,7.44,.4,9.3,1.21,1.87,.81,2.8,1.99,2.8,3.55,0,.83-.24,1.54-.71,2.12-.48,.58-1.14,1.01-2.01,1.28-.36,.11-.77,.2-1.21,.27s-.93,.14-1.46,.18Z"/>
  <path class="cls-1" d="M307.01,169.3v-.39c0-1.51-.85-2.66-2.55-3.46-1.7-.79-4.3-1.19-7.81-1.19-1.69,.02-3.22,.16-4.58,.43s-2.51,.66-3.44,1.18c-.94,.51-1.66,1.16-2.16,1.93-.51,.77-.76,1.67-.76,2.7s.26,1.92,.77,2.71c.51,.79,1.25,1.46,2.21,1.99,.96,.54,2.13,.94,3.52,1.22,1.39,.28,2.95,.42,4.69,.42,1.84,0,3.41-.1,4.69-.29,1.28-.2,2.33-.49,3.13-.87,.8-.39,1.38-.86,1.74-1.43,.36-.57,.54-1.21,.54-1.94v-.5c.24,.01,.5,.02,.78,.02h1.64c.27,0,.53,0,.77-.02,0,.11,0,.22,.01,.33,0,.11,.01,.22,.01,.33,0,1.01-.21,1.95-.63,2.81s-1.14,1.6-2.15,2.22-2.38,1.11-4.09,1.46c-1.71,.35-3.86,.53-6.45,.53-2.3,0-4.35-.19-6.15-.57-1.81-.38-3.32-.94-4.55-1.68-1.23-.74-2.17-1.67-2.81-2.8-.64-1.13-.96-2.42-.96-3.89s.35-2.82,1.04-3.94,1.66-2.04,2.9-2.75c1.24-.72,2.74-1.25,4.5-1.61,1.76-.35,3.69-.53,5.79-.53,4.46,0,7.83,.56,10.12,1.69,2.29,1.13,3.43,2.84,3.43,5.16,0,.12,0,.24-.01,.36,0,.12-.01,.24-.01,.36-.24-.01-.5-.02-.77-.02h-1.62c-.26,0-.52,0-.78,.02Z"/>
  <path class="cls-1" d="M376.09,170.61c0,2.87-1.23,5.09-3.7,6.67-2.47,1.58-6.04,2.37-10.71,2.37s-8.24-.79-10.72-2.37c-2.48-1.58-3.72-3.8-3.72-6.67,0-1.47,.32-2.76,.97-3.89s1.59-2.07,2.81-2.83c1.22-.76,2.73-1.34,4.53-1.73,1.8-.39,3.84-.59,6.12-.59s4.32,.2,6.12,.59c1.8,.39,3.31,.97,4.53,1.73,1.22,.76,2.16,1.71,2.8,2.83,.64,1.13,.96,2.42,.96,3.89Zm-14.41,6.44c3.61,0,6.37-.53,8.28-1.59,1.91-1.06,2.87-2.67,2.87-4.83s-.96-3.78-2.89-4.85c-1.93-1.07-4.68-1.61-8.26-1.61s-6.33,.54-8.26,1.61c-1.93,1.07-2.89,2.69-2.89,4.85s.96,3.77,2.88,4.83c1.92,1.06,4.68,1.59,8.27,1.59Z"/>
  <path class="cls-1" d="M438.84,162.11h4.01c-.03,1.1-.06,2.33-.09,3.68-.03,1.35-.05,2.95-.05,4.79s.01,3.36,.03,4.69c.02,1.33,.06,2.61,.1,3.83h-3.42c.01-.62,.03-1.3,.06-2.05,.02-.75,.04-1.53,.05-2.35,0-.82,.01-1.66,.02-2.54,0-.88,.01-1.75,.01-2.63,0-.74,.02-1.48,.06-2.22,.04-.74,.07-1.45,.1-2.13l-.18-.02c-.38,.56-.81,1.17-1.29,1.82s-1,1.31-1.56,1.96l-8.84,10.15h-1.72l-8.93-10.63c-.6-.72-1.14-1.4-1.61-2.03-.47-.63-.89-1.22-1.27-1.78l-.23,.07c.03,.8,.06,1.66,.1,2.58,.04,.92,.06,1.78,.08,2.58,0,.91,0,1.75,.01,2.54,0,.79,.02,1.54,.03,2.25,.01,.72,.03,1.44,.06,2.15,.02,.72,.06,1.47,.1,2.25h-3.31c.05-1.21,.08-2.48,.09-3.82,.01-1.34,.02-2.9,.02-4.7s-.01-3.44-.03-4.79c-.02-1.35-.05-2.58-.08-3.68h4.69c1,1.16,2.22,2.63,3.67,4.38,1.45,1.76,3.04,3.7,4.78,5.81,.44,.56,.9,1.14,1.39,1.76,.49,.61,.97,1.23,1.44,1.85h.25c.47-.62,.95-1.24,1.45-1.86,.5-.62,.97-1.19,1.41-1.72,.91-1.04,1.78-2.07,2.62-3.07,.84-1,1.62-1.94,2.35-2.82,.72-.88,1.39-1.68,2-2.42s1.15-1.37,1.62-1.9Z"/>
  <path class="cls-1" d="M480.38,162.11h15.02c1.46,0,2.76,.09,3.87,.27s2.05,.5,2.79,.95c.74,.45,1.3,1.07,1.69,1.84,.39,.77,.58,1.74,.58,2.92,0,2.28-.74,3.89-2.22,4.83s-3.72,1.4-6.73,1.4h-5.12c-.88,0-1.84,0-2.9-.01-1.06,0-2.3-.03-3.72-.06,.01,.95,.03,1.84,.06,2.65,.02,.82,.06,1.55,.1,2.2h-3.42c.03-1.22,.05-2.49,.07-3.81,.01-1.31,.02-2.88,.02-4.69s0-3.37-.02-4.71c-.02-1.34-.04-2.61-.07-3.78Zm14.34,9.86c2.4,0,4.07-.28,5.02-.83,.94-.55,1.42-1.54,1.42-2.96s-.48-2.44-1.44-2.96c-.96-.52-2.6-.78-4.93-.78h-5.53c-1.09,0-2.14,0-3.16,.02-1.02,.01-1.84,.03-2.46,.05,0,1.28,0,2.55-.01,3.81,0,1.25,0,2.45,.01,3.58,.39,0,.97,0,1.74,.01,.77,0,1.65,.02,2.64,.02s2.06,.01,3.22,.02c1.16,0,2.31,.01,3.48,.01Z"/>
  <path class="cls-1" d="M572.81,179.11h-4.21c-.18-.3-.52-.8-1.01-1.51-.49-.7-1.06-1.51-1.71-2.41-1.48-.01-2.95-.03-4.4-.03-1.45,0-2.79-.01-4.01-.01h-3.83c-.71,0-1.44,0-2.18,.01-.74,0-1.46,.02-2.15,.03-.62,.83-1.18,1.59-1.68,2.29-.5,.69-.88,1.24-1.13,1.63h-3.92c.86-1.07,1.93-2.44,3.2-4.09,1.27-1.65,2.53-3.32,3.78-4.99,1.25-1.67,2.42-3.23,3.49-4.69,1.07-1.46,1.84-2.53,2.31-3.23h4.53c.62,.91,1.48,2.09,2.57,3.56,1.09,1.47,2.25,3,3.48,4.6,1.22,1.6,2.45,3.19,3.68,4.77,1.23,1.58,2.29,2.93,3.18,4.07Zm-15.32-6.14h3.24c1.22,0,2.4,0,3.54-.02-.73-1-1.45-1.99-2.18-2.99-.73-1-1.38-1.9-1.97-2.7-.6-.83-1.11-1.52-1.51-2.07s-.74-1.02-1.01-1.39c-.29,.41-.63,.89-1.04,1.45-.41,.56-.89,1.25-1.45,2.06-.57,.82-1.22,1.72-1.95,2.71-.73,.99-1.45,1.97-2.18,2.93,.54,0,1.11,0,1.7,.01,.59,0,1.17,.01,1.73,.01h3.07Z"/>
  <path class="cls-1" d="M632.56,162.11h3.04c-.01,1.09-.03,2.33-.05,3.72-.02,1.39-.02,2.98-.02,4.78v4.75c0,1.34,0,2.59,.02,3.75h-3.2c-.45-.42-1.27-1.08-2.45-1.96-1.18-.88-2.53-1.87-4.04-2.96-1.52-1.09-3.13-2.23-4.83-3.43-1.7-1.2-3.29-2.32-4.77-3.36-.51-.36-1.02-.73-1.51-1.1-.49-.37-.94-.72-1.35-1.05l-.02,.02c.03,.6,.05,1.24,.06,1.9,0,.66,.02,1.33,.03,1.99,.01,2.48,.03,4.58,.03,6.3s.03,2.94,.08,3.65h-3.1c0-1.13,0-2.38,.02-3.75,.01-1.37,.02-2.95,.02-4.75s0-3.38-.01-4.75c0-1.37-.02-2.62-.03-3.75h3.76c.38,.36,1.17,1,2.39,1.9,1.22,.91,2.61,1.92,4.18,3.05,1.57,1.13,3.2,2.28,4.89,3.48,1.69,1.19,3.2,2.26,4.53,3.19,.45,.32,.9,.63,1.35,.93s.84,.62,1.19,.95l.02-.02c-.03-.59-.05-1.18-.07-1.78-.01-.6-.02-1.17-.02-1.73,0-1.12,0-2.19-.01-3.23,0-1.03-.02-1.99-.03-2.85-.02-.87-.03-1.64-.05-2.31-.02-.67-.04-1.2-.07-1.57Z"/>
  <path class="cls-1" d="M698.47,162.11h4.42c-.89,.79-1.93,1.72-3.12,2.8-1.19,1.08-2.38,2.18-3.57,3.31-1.19,1.13-2.34,2.22-3.44,3.29-1.1,1.06-2.02,1.98-2.76,2.73,0,.53,0,1.05,.01,1.57,0,.52,.01,1,.02,1.43s.01,.81,.02,1.14,.01,.57,.01,.72h-3.42c.01-.15,.03-.39,.03-.72,0-.33,.01-.72,.02-1.16,0-.44,.01-.92,.02-1.45s.01-1.06,.01-1.59c-.71-.75-1.61-1.67-2.71-2.75-1.1-1.08-2.24-2.18-3.44-3.3-1.2-1.12-2.39-2.21-3.58-3.29-1.19-1.07-2.22-1.99-3.12-2.74h4.74c.23,.26,.6,.64,1.12,1.16,.52,.51,1.1,1.08,1.74,1.7,.64,.62,1.29,1.26,1.96,1.91,.66,.66,1.25,1.24,1.77,1.76,.74,.76,1.37,1.39,1.9,1.91,.53,.52,.97,.97,1.34,1.35h.18c.33-.38,.75-.82,1.25-1.33,.5-.51,1.11-1.13,1.84-1.87,.51-.51,1.11-1.1,1.8-1.76s1.36-1.3,2.03-1.93,1.27-1.2,1.8-1.73c.54-.53,.91-.92,1.12-1.18Z"/>
</svg>